<?xml version="1.0" encoding="UTF-8"?><svg id="uuid-27f5ccec-13a7-4aba-a042-5fd1747e3068" xmlns="http://www.w3.org/2000/svg" xmlns:xlink="http://www.w3.org/1999/xlink" viewBox="0 0 162 32"><defs><linearGradient id="uuid-ceea6e08-cbd9-418f-bf2b-b4362a4ba5f5" x1="0" y1="16" x2="23.21" y2="16" gradientUnits="userSpaceOnUse"><stop offset="0" stop-color="#0053bc"/><stop offset=".59" stop-color="#0053bc"/><stop offset=".67" stop-color="#0055c0"/><stop offset=".76" stop-color="#005dcc"/><stop offset=".84" stop-color="#006ae0"/><stop offset=".93" stop-color="#007dfc"/><stop offset=".93" stop-color="#007fff"/></linearGradient><linearGradient id="uuid-8a7da622-5560-4b75-8ad1-c560b7d88d02" x1="8.23" y1="24.65" x2="30.77" y2="24.65" gradientUnits="userSpaceOnUse"><stop offset=".06" stop-color="#0053bc"/><stop offset=".15" stop-color="#0061d2"/><stop offset=".27" stop-color="#0071eb"/><stop offset=".38" stop-color="#007bf9"/><stop offset=".47" stop-color="#007fff"/></linearGradient><linearGradient id="uuid-06e92979-84bd-440f-9a7b-9a11d1d39657" x1="8.23" y1="24.56" x2="30.77" y2="24.56" gradientUnits="userSpaceOnUse"><stop offset=".06" stop-color="#0053bc"/><stop offset=".39" stop-color="#0075f0"/><stop offset=".71" stop-color="#0064f7"/><stop offset="1" stop-color="#005bfc"/></linearGradient><linearGradient id="uuid-bd70492e-5e2e-4cb8-8adc-9b32e52e26f2" x1="2.48" y1="32.85" x2="17.67" y2="2.26" gradientUnits="userSpaceOnUse"><stop offset=".29" stop-color="#005bce"/><stop offset=".64" stop-color="#007fff"/></linearGradient></defs><path d="M15.53.44L0,31.56h2.75c5.21,0,11.42-3.87,14.1-9.11l4.85-9.7L15.53.44Z" fill="url(#uuid-ceea6e08-cbd9-418f-bf2b-b4362a4ba5f5)"/><path d="M18.02,18.21c-1.16-.34-2.28-.47-3.33-.47-3.68,0-6.42,1.62-6.46,1.64,2.2.53,4.61,1.92,6.93,4.84,7.31,9.2,15.61,7.14,15.61,7.14,0,0-3.1-10.5-12.75-13.15Z" fill="url(#uuid-8a7da622-5560-4b75-8ad1-c560b7d88d02)"/><path d="M18.02,18.21c-5.25-1.53-9.78,1.17-9.79,1.18.03,0,.06.02.09.02,14.12-2.09,11.18,9.24,22.45,11.96,0,0-3.1-10.5-12.75-13.15Z" fill="url(#uuid-06e92979-84bd-440f-9a7b-9a11d1d39657)"/><path d="M18.63,6.63L15.53.44,0,31.56h3.03S11.18,15.22,11.18,15.22c2.53-4.88,5.08-7.12,7.44-8.59Z" fill="url(#uuid-bd70492e-5e2e-4cb8-8adc-9b32e52e26f2)"/><polygon points="70.75 10.39 64.79 22.08 58.95 10.39 54.64 10.39 62.79 25.98 66.76 25.98 74.9 10.39 70.75 10.39" fill="#111"/><path d="M125.39,19.64c0,.79-.16,1.43-.47,1.9-.3.45-.85.79-1.63,1.01-.88.25-2.12.38-3.7.38-1.07,0-1.95-.06-2.61-.19-.58-.11-1.03-.29-1.33-.55-.28-.24-.48-.59-.6-1.07-.14-.55-.21-1.28-.21-2.16v-8.58h-3.72v8.58c0,1.78.24,3.16.74,4.22.53,1.12,1.42,1.92,2.65,2.39,1.14.43,2.71.66,4.64.66,1.46,0,2.66-.08,3.58-.25.97-.18,1.74-.44,2.34-.81.1-.06.2-.13.3-.2v.99h3.71v-15.58h-3.71v9.25Z" fill="#111"/><path d="M139.09,10.29c-.81.08-1.44.21-1.94.39h0c-.36.14-.67.31-.95.52v-.81h-3.71v15.58h3.71v-9.38c0-.71.04-1.3.11-1.75.05-.31.19-.54.44-.71.2-.14.65-.34,1.62-.47.86-.11,2.11-.17,3.71-.17h.67v-3.32h-.67c-1.23,0-2.23.04-3,.11Z" fill="#111"/><path d="M90.81,11.8h0c-.62-.65-1.52-1.11-2.67-1.35-1.06-.22-2.46-.34-4.16-.34h-7.19v3.31h7.19c1.13,0,2.03.04,2.69.13.56.07.98.22,1.24.44.24.21.42.55.52,1.03.09.43.15.98.18,1.65-.59-.09-1.22-.16-1.9-.21-.77-.05-1.69-.08-2.73-.09-.31,0-.63,0-.96,0-1.82,0-3.31.09-4.45.28-1.26.21-2.21.68-2.81,1.41-.62.74-.92,1.81-.92,3.28s.33,2.53.98,3.25c.64.72,1.61,1.18,2.87,1.38,1.14.18,2.6.27,4.33.27.34,0,.66,0,.97,0,.88-.02,1.64-.06,2.25-.12.88-.09,1.58-.24,2.13-.44.09-.03.18-.07.27-.11v.41h3.71v-7.52c0-1.61-.1-2.95-.29-3.98-.21-1.12-.63-2.02-1.25-2.67ZM88.64,21.23c0,.63-.08.97-.15,1.14-.04.09-.12.23-.43.34-.24.09-.73.2-1.69.23-.62.02-1.43.04-2.4.05-.3,0-.62,0-.95,0-1.09,0-1.98-.02-2.65-.06-.75-.05-1.14-.15-1.34-.23-.24-.1-.31-.22-.35-.32-.06-.16-.14-.47-.14-1.04s.08-.92.14-1.09c.04-.1.11-.23.35-.34.19-.08.58-.19,1.33-.24.48-.03,1.09-.05,1.81-.05.26,0,.54,0,.83,0l5.63.07v1.53Z" fill="#111"/><path d="M52.54,11.8c-.62-.65-1.52-1.11-2.67-1.35-1.06-.22-2.46-.34-4.16-.34h-7.19v3.31h7.19c1.13,0,2.03.04,2.69.13.56.07.98.22,1.24.44.24.21.42.55.52,1.03.09.43.15.98.18,1.65-.59-.09-1.22-.16-1.9-.21-.77-.05-1.69-.08-2.73-.09-.31,0-.63,0-.96,0-1.82,0-3.31.09-4.45.28-1.26.21-2.21.68-2.81,1.41-.62.74-.92,1.81-.92,3.28s.33,2.53.98,3.25c.64.72,1.61,1.18,2.87,1.38,1.14.18,2.6.27,4.33.27.34,0,.66,0,.97,0,.88-.02,1.64-.06,2.25-.12.88-.09,1.58-.24,2.13-.44.09-.03.18-.07.27-.11v.41h3.71v-7.52c0-1.61-.1-2.95-.29-3.98-.21-1.12-.63-2.02-1.25-2.67ZM50.37,21.23c0,.63-.08.97-.15,1.14-.04.09-.12.23-.43.34-.24.09-.73.2-1.69.23-.62.02-1.43.04-2.4.05-.3,0-.62,0-.95,0-1.09,0-1.98-.02-2.65-.06-.75-.05-1.14-.15-1.34-.23-.24-.1-.31-.22-.35-.32-.06-.16-.14-.47-.14-1.04s.08-.92.14-1.09c.04-.1.11-.23.35-.34.19-.08.58-.19,1.33-.24.48-.03,1.09-.05,1.81-.05.26,0,.54,0,.83,0l5.63.07v1.53Z" fill="#111"/><path d="M158.12,20.04c0,.12.13,2.72-3.04,2.72s-6.25.54-7-1.62l10.33-3.94,2.98-1.14.6-.23c-.02-.44-.07-.86-.18-1.28-.17-.67-.46-1.31-.85-1.88-.83-1.22-2.1-2.15-3.65-2.53-.95-.22-1.07-.17-6.98-.17-3.35,0-6.08,2.73-6.08,6.08v3.97c0,3.35,2.73,6.08,6.08,6.08,5.91,0,6.03.06,6.98-.17,2.79-.67,4.68-3.14,4.68-5.91h-3.88ZM147.91,16.06c0-3.43,3.65-2.72,7.16-2.72,1.1,0,1.79.31,2.24.73l-9.44,3.6c.01-.52.03-1.06.03-1.61Z" fill="#111"/><path d="M101.47,22.52c-.41-.4-.3-.59-.3-8.6v-.24h6.48v-3.29h-6.5v-4.64h-3.71v4.63h-2.74v3.31h2.75v.23s.01,7.52.01,7.52c0,3.06,2.16,4.64,4.4,4.82h5.98v-3.46c-5.9,0-5.99.1-6.39-.28Z" fill="#111"/></svg>